<?xml version="1.0" encoding="UTF-8" standalone="no"?><!DOCTYPE svg PUBLIC "-//W3C//DTD SVG 1.1//EN" "http://www.w3.org/Graphics/SVG/1.1/DTD/svg11.dtd"><svg width="100%" height="100%" viewBox="0 0 468 468" version="1.1" xmlns="http://www.w3.org/2000/svg" xmlns:xlink="http://www.w3.org/1999/xlink" xml:space="preserve" xmlns:serif="http://www.serif.com/" style="fill-rule:evenodd;clip-rule:evenodd;stroke-linejoin:round;stroke-miterlimit:2;"><g><path id="Layer_1" d="M179.824,400.506l-0,-209.43c-0,-11.169 9.122,-20.291 20.291,-20.291c11.17,0 20.292,9.122 20.292,20.291l-0,209.43c-0,12.472 10.238,22.711 22.711,22.711c12.473,0 22.711,-10.239 22.711,-22.711l0,-247.965c0,-12.472 -10.238,-22.525 -22.711,-22.525l-162.145,0c-34.812,0 -63.108,-28.296 -63.108,-63.108c0,-34.812 28.296,-63.108 63.108,-63.108l305.674,0c34.812,0 63.108,28.296 63.108,63.108c-0,11.17 -9.122,20.291 -20.291,20.291c-11.17,0 -20.292,-9.121 -20.292,-20.291c0,-12.473 -10.052,-22.711 -22.711,-22.711l-305.674,-0c-12.473,-0 -22.712,10.238 -22.712,22.711c0,12.473 10.053,22.712 22.712,22.712l162.145,-0c34.812,-0 63.108,28.296 63.108,63.108l-0,247.964c-0,34.812 -28.296,63.108 -63.108,63.108c-34.812,0 -63.108,-28.296 -63.108,-63.294Z" style="fill:url(#_Radial1);"/></g><defs><radialGradient id="_Radial1" cx="0" cy="0" r="1" gradientUnits="userSpaceOnUse" gradientTransform="matrix(494.92,0,0,494.92,230.589,-92.4631)"><stop offset="0" style="stop-color:#edc266;stop-opacity:1"/><stop offset="0.06" style="stop-color:#e3c27d;stop-opacity:1"/><stop offset="0.22" style="stop-color:#ffffcf;stop-opacity:1"/><stop offset="0.41" style="stop-color:#ffde78;stop-opacity:1"/><stop offset="0.58" style="stop-color:#cca145;stop-opacity:1"/><stop offset="0.77" style="stop-color:#6b3800;stop-opacity:1"/><stop offset="1" style="stop-color:#d6ab4f;stop-opacity:1"/></radialGradient></defs></svg>